Simulation
nRows=31
nColumns=15
endheader
time  TH_x TH_y TH_z SC_y  SC_z  SC_x  AC_y  AC_z  AC_x  GH_y  GH_z  GH_yy  EL_x  PS_y
5.382082397003745  0.000000  0.000000  0.000000  -31.769619942197632  11.438504194292621  18.35905364113048  54.02068955820667  17.60967104927972  12.665273617960098  -2.1393894006906544  62.28869758843827  4.195579556023545  13.466714266399826  120.000000
5.422247191011236  0.000000  0.000000  0.000000  -31.74317539497884  11.32356047493995  18.367081440785437  54.03467169440182  17.550614061585517  12.392739347168252  -1.9434647367268512  62.33754797461678  3.8814232028847786  13.487480194177747  120.000000
5.4624119850187265  0.000000  0.000000  0.000000  -31.59699526113849  11.189718937904614  18.23092726239767  54.038075446817864  17.47638047255961  12.033697260229301  -1.724741947507224  62.12778670142904  3.649274855847022  13.427903540613265  120.000000
5.502576779026217  0.000000  0.000000  0.000000  -31.3316393876149  11.036485575202855  17.943957818444165  54.03716905474246  17.383395725247176  11.58983339178416  -1.4858999430075666  61.64281498707087  3.488597063153303  13.304090633719849  120.000000
5.542741573033708  0.000000  0.000000  0.000000  -30.951447142225664  10.862079072568935  17.502325942084372  54.0388781098457  17.267263711103823  11.06590651511437  -1.2307837722551973  60.86933454899522  3.3860434175666785  13.138220853335946  120.000000
5.582906367041199  0.000000  0.000000  0.000000  -30.465071410317666  10.663425694569352  16.90526915644472  54.049583630915535  17.122840959264625  10.469905165629152  -0.962893459306388  59.79960945055831  3.3281467902435384  12.954538937189746  120.000000
5.623071161048689  0.000000  0.000000  0.000000  -29.885697364773968  10.436307956653938  16.155493467845172  54.07389603659108  16.94455346710873  9.813001036083683  -0.6839546682090922  58.43354916944375  3.3040612772941134  12.77526302527322  120.000000
5.66323595505618  0.000000  0.000000  0.000000  -29.230885685407053  10.175802677572886  15.25951666866291  54.113845828258924  16.726993206043684  9.109442400055013  -0.3929964598547399  56.78013459755183  3.3077424821483272  12.61724437025291  120.000000
5.70340074906367  0.000000  0.000000  0.000000  -28.52180041563884  9.876931113069853  14.227998122458557  54.16871381143884  16.46553625916962  8.376266971288894  -0.0860049306646718  54.857849409932925  3.3390953054065564  12.490163089049837  120.000000
5.743565543071161  0.000000  0.000000  0.000000  -27.78184552787189  9.53545945465484  13.075777363029841  54.2354337312199  16.157084812408044  7.632925138576716  0.24377355282124338  52.69380829014068  3.4038797800552922  12.396577991633487  120.000000
5.7837303370786515  0.000000  0.000000  0.000000  -27.03515413271119  9.14879326000788  11.82166230997156  54.30944784722516  15.800676868945287  6.900456000654919  0.6049253540692846  50.32187079940833  3.512760371986  12.333215957721167  120.000000
5.823895131086142  0.000000  0.000000  0.000000  -26.305151784769226  8.716921545854158  10.487640663818011  54.38560856638557  15.398050897453807  6.20006455674878  1.0061948250869777  47.7800426998718  3.6800953418383853  12.292860588402997  120.000000
5.864059925093633  0.000000  0.000000  0.000000  -25.61345071786279  8.243134528277515  9.097753188080272  54.45929126717805  14.953594928978058  5.551528580677029  1.4548765538771453  45.10758817161955  3.922593071592753  12.266353509575483  120.000000
5.904224719101124  0.000000  0.000000  0.000000  -24.978411237270826  7.7339611789458  7.676704307191002  54.52726343648973  14.474006877075304  4.972076957590833  1.9558551532817765  42.342479954621844  4.257756905498347  12.244606994675488  120.000000
5.944389513108614  0.000000  0.000000  0.000000  -24.41420476153642  7.1988180182648245  6.248947298650165  54.588258420095336  13.967921439771397  4.475702116674801  2.5103088756917042  39.51955220750661  4.703019127469272  12.220093127950681  120.000000
5.984554307116105  0.000000  0.000000  0.000000  -23.931046859957643  6.650010389585694  4.837939939497395  54.642898563908346  13.445746341293637  4.072531586906657  3.114506306208414  36.66984116118737  5.2752304152494665  12.18758660727309  120.000000
6.024719101123596  0.000000  0.000000  0.000000  -23.535327713749105  6.102351493494259  3.465851517668945  54.693021095592044  12.919561060855303  3.768172151313885  3.7585613804086666  33.8205255379159  5.9906872685817305  12.144709577614105  120.000000
6.064883895131086  0.000000  0.000000  0.000000  -23.229790191452917  5.572170010999268  2.1531255598223495  54.74117223901463  12.402796510993397  3.563772996329424  4.425880533227147  30.99524681929149  6.865179717027963  12.092351002091638  120.000000
6.1050486891385765  0.000000  0.000000  0.000000  -23.013504732244506  5.076401906122994  0.9179204081077994  54.79052045872332  11.909514408013344  3.4563176876954262  5.093504001071838  28.214363862400035  7.9138057384919165  12.034872378784996  120.000000
6.145213483146067  0.000000  0.000000  0.000000  -22.88152458757606  4.630870639417425  -0.22359507861640904  54.845018896364046  11.45318429900885  3.4387482245672296  5.733110513204027  25.495392619323525  9.150777587838734  11.980233741784726  120.000000
6.185378277153558  0.000000  0.000000  0.000000  -22.824550075900326  4.248899276397218  -1.2575361844958035  54.909939296406705  11.045976452248938  3.5014106161197294  6.314242066206865  22.853552964694384  10.587632994214932  11.939719601488312  120.000000
6.225543071161049  0.000000  0.000000  0.000000  -22.8292344757269  3.940223415178347  -2.170994805354301  54.99205729621562  10.696769552864033  3.63238382075539  6.8074026699312675  20.30209828940351  12.231722599088243  11.927133236133848  120.000000
6.265707865168539  0.000000  0.000000  0.000000  -22.880012239507113  3.7099702305580418  -2.9522644844603385  55.09847465432881  10.410288219067557  3.81788052456859  7.183846387575213  17.85244605421205  14.08748323593153  11.957364461170696  120.000000
6.30587265917603  0.000000  0.000000  0.000000  -22.961297416567152  3.5588515728684005  -3.592476333720715  55.235198580730525  10.1875875045964  4.043793229969176  7.4135404944232715  15.514349286230965  16.159637352972442  12.044620287826364  120.000000
6.346037453183521  0.000000  0.000000  0.000000  -23.059220185681188  3.4831510878131233  -4.086047277652393  55.40570941558692  10.027265916380532  4.297127423071118  7.461352965807095  13.296601408900111  18.45734980231296  12.200513457717575  120.000000
6.386202247191012  0.000000  0.000000  0.000000  -23.162901701367456  3.476640783364698  -4.431325252801875  55.610618025591634  9.926361576774731  4.5665752946865386  7.28078350244537  11.207352954239804  21.001104352271465  12.432931083851736  120.000000
6.426367041198501  0.000000  0.000000  0.000000  -23.264782124205233  3.5315584166181764  -4.631501799741534  55.849748679220056  9.879276895502004  4.840797703314076  6.810274989993098  9.25303208014987  23.826137611856478  12.745439141316618  120.000000
6.466531835205992  0.000000  0.000000  0.000000  -23.360594303357832  3.635678512441623  -4.695797431381139  56.12023186152233  9.878083658363922  5.111300025852626  5.953169660597319  7.436338210234906  27.00228340440517  13.135567971582137  120.000000
6.506696629213483  0.000000  0.000000  0.000000  -23.449688037114534  3.774023162868414  -4.637380068025982  56.413975159600554  9.913009107186644  5.373848586075646  4.535142082847491  5.756525689645959  30.676129988669953  13.594533775094696  120.000000
6.546861423220974  0.000000  0.000000  0.000000  -23.53361597648952  3.9346404415174563  -4.472555395652679  56.7229318797101  9.974025941569664  5.622990864076307  2.2192429866177688  4.211682313153299  35.154792682168505  14.106912602830825  120.000000
6.587026217228464  0.000000  0.000000  0.000000  -23.615366570967876  4.109523456310906  -4.220320069081619  57.03984655962872  10.051675740345747  5.850838990794084  -1.8740545236655732  2.7998497778305187  41.28681839854037  14.65053310641174  120.000000
